<svg width="24" height="24" viewBox="0 0 24 24" fill="none" xmlns="http://www.w3.org/2000/svg">
<path d="M10.4 3.8H13.6L14.2 5.8C14.58 5.93 14.95 6.09 15.3 6.3L17.2 5.4L19.4 7.6L18.5 9.5C18.71 9.85 18.87 10.22 19 10.6L21 11.2V14.8L19 15.4C18.87 15.78 18.71 16.15 18.5 16.5L19.4 18.4L17.2 20.6L15.3 19.7C14.95 19.91 14.58 20.07 14.2 20.2L13.6 22.2H10.4L9.8 20.2C9.42 20.07 9.05 19.91 8.7 19.7L6.8 20.6L4.6 18.4L5.5 16.5C5.29 16.15 5.13 15.78 5 15.4L3 14.8V11.2L5 10.6C5.13 10.22 5.29 9.85 5.5 9.5L4.6 7.6L6.8 5.4L8.7 6.3C9.05 6.09 9.42 5.93 9.8 5.8L10.4 3.8Z" stroke="#3B4A63" stroke-width="1.4" stroke-linejoin="round"/>
<circle cx="12" cy="13" r="2.9" stroke="#3B4A63" stroke-width="1.8"/>
</svg>
